<svg xmlns="http://www.w3.org/2000/svg" xmlns:xlink="http://www.w3.org/1999/xlink" width="500" zoomAndPan="magnify" viewBox="0 0 375 374.999991" height="500" preserveAspectRatio="xMidYMid meet" version="1.2"><defs><clipPath id="e8e2fe82d6"><path d="M 136 140 L 153 140 L 153 207 L 136 207 Z M 136 140 "/></clipPath><clipPath id="3d868d1f30"><path d="M 181.164062 176.894531 L 144.570312 213.488281 L 107.980469 176.894531 L 144.570312 140.304688 Z M 181.164062 176.894531 "/></clipPath><clipPath id="301e3238a9"><path d="M 181.164062 176.894531 L 144.570312 213.488281 L 107.980469 176.894531 L 144.570312 140.304688 Z M 181.164062 176.894531 "/></clipPath><clipPath id="2f2d2a4359"><path d="M 181.164062 176.894531 L 144.570312 213.488281 L 107.980469 176.894531 L 144.570312 140.304688 Z M 181.164062 176.894531 "/></clipPath></defs><g id="65f309acd3"><g style="fill:#000000;fill-opacity:1;"><g transform="translate(25.73294, 205.112554)"><path style="stroke:none" d="M 4.046875 -8.171875 C 2.671875 -9.867188 1.984375 -11.390625 1.984375 -12.734375 C 1.984375 -14.085938 3.117188 -15.875 5.390625 -18.09375 C 6.710938 -19.363281 8.113281 -20 9.59375 -20 C 11.082031 -20 13.148438 -18.675781 15.796875 -16.03125 C 16.535156 -15.132812 17.59375 -14.273438 18.96875 -13.453125 C 20.34375 -12.628906 21.613281 -12.21875 22.78125 -12.21875 C 27.695312 -12.21875 30.15625 -14.226562 30.15625 -18.25 C 30.15625 -19.46875 29.476562 -20.484375 28.125 -21.296875 C 26.78125 -22.117188 25.101562 -22.71875 23.09375 -23.09375 C 21.082031 -23.46875 18.910156 -24.0625 16.578125 -24.875 C 14.253906 -25.695312 12.085938 -26.660156 10.078125 -27.765625 C 8.066406 -28.878906 6.382812 -30.640625 5.03125 -33.046875 C 3.6875 -35.453125 3.015625 -38.351562 3.015625 -41.75 C 3.015625 -46.40625 4.742188 -50.460938 8.203125 -53.921875 C 11.671875 -57.390625 16.394531 -59.125 22.375 -59.125 C 25.550781 -59.125 28.445312 -58.710938 31.0625 -57.890625 C 33.6875 -57.066406 35.5 -56.234375 36.5 -55.390625 L 38.484375 -53.890625 C 40.128906 -52.347656 40.953125 -51.046875 40.953125 -49.984375 C 40.953125 -48.929688 40.316406 -47.476562 39.046875 -45.625 C 37.242188 -42.976562 35.390625 -41.65625 33.484375 -41.65625 C 32.378906 -41.65625 31.003906 -42.1875 29.359375 -43.25 C 29.203125 -43.351562 28.898438 -43.613281 28.453125 -44.03125 C 28.003906 -44.457031 27.59375 -44.804688 27.21875 -45.078125 C 26.101562 -45.765625 24.6875 -46.109375 22.96875 -46.109375 C 21.25 -46.109375 19.820312 -45.695312 18.6875 -44.875 C 17.550781 -44.050781 16.984375 -42.910156 16.984375 -41.453125 C 16.984375 -40.003906 17.65625 -38.828125 19 -37.921875 C 20.351562 -37.023438 22.035156 -36.414062 24.046875 -36.09375 C 26.054688 -35.78125 28.25 -35.289062 30.625 -34.625 C 33.007812 -33.96875 35.207031 -33.164062 37.21875 -32.21875 C 39.226562 -31.269531 40.90625 -29.617188 42.25 -27.265625 C 43.601562 -24.910156 44.28125 -22.007812 44.28125 -18.5625 C 44.28125 -15.125 43.59375 -12.097656 42.21875 -9.484375 C 40.84375 -6.867188 39.046875 -4.84375 36.828125 -3.40625 C 32.535156 -0.601562 27.957031 0.796875 23.09375 0.796875 C 20.601562 0.796875 18.25 0.492188 16.03125 -0.109375 C 13.8125 -0.722656 12.015625 -1.476562 10.640625 -2.375 C 7.828125 -4.070312 5.867188 -5.710938 4.765625 -7.296875 Z M 4.046875 -8.171875 "/></g></g><g style="fill:#000000;fill-opacity:1;"><g transform="translate(78.258384, 205.112554)"><path style="stroke:none" d="M 28.09375 -29.203125 C 36.1875 -21.421875 41.925781 -15.578125 45.3125 -11.671875 C 47.0625 -9.710938 47.9375 -8.054688 47.9375 -6.703125 C 47.9375 -5.359375 46.875 -3.769531 44.75 -1.9375 C 42.632812 -0.113281 40.898438 0.796875 39.546875 0.796875 C 38.203125 0.796875 36.582031 -0.316406 34.6875 -2.546875 L 17.21875 -22.453125 L 17.21875 -6.984375 C 17.21875 -5.710938 17.175781 -4.785156 17.09375 -4.203125 C 17.019531 -3.617188 16.769531 -2.929688 16.34375 -2.140625 C 15.601562 -0.710938 13.539062 0 10.15625 0 C 6.457031 0 4.289062 -1.003906 3.65625 -3.015625 C 3.332031 -3.859375 3.171875 -5.207031 3.171875 -7.0625 L 3.171875 -51.1875 C 3.171875 -52.40625 3.207031 -53.316406 3.28125 -53.921875 C 3.363281 -54.535156 3.617188 -55.238281 4.046875 -56.03125 C 4.785156 -57.457031 6.847656 -58.171875 10.234375 -58.171875 C 13.941406 -58.171875 16.140625 -57.191406 16.828125 -55.234375 C 17.085938 -54.335938 17.21875 -52.960938 17.21875 -51.109375 L 17.21875 -35.953125 C 24.414062 -44.046875 30.238281 -50.6875 34.6875 -55.875 C 36.53125 -58.039062 38.140625 -59.125 39.515625 -59.125 C 40.890625 -59.125 42.632812 -58.207031 44.75 -56.375 C 46.875 -54.550781 47.9375 -52.960938 47.9375 -51.609375 C 47.9375 -50.265625 47.140625 -48.671875 45.546875 -46.828125 C 42.484375 -43.273438 37.722656 -38.40625 31.265625 -32.21875 Z M 28.09375 -29.203125 "/></g></g><g style="fill:#000000;fill-opacity:1;"><g transform="translate(135.226968, 205.112554)"><path style="stroke:none" d=""/></g></g><g style="fill:#000000;fill-opacity:1;"><g transform="translate(161.569586, 205.112554)"><path style="stroke:none" d="M 17.21875 -11.75 L 38.8125 -11.75 C 40.550781 -11.75 41.816406 -11.550781 42.609375 -11.15625 C 43.410156 -10.757812 43.941406 -10.132812 44.203125 -9.28125 C 44.460938 -8.4375 44.59375 -7.3125 44.59375 -5.90625 C 44.59375 -4.507812 44.460938 -3.382812 44.203125 -2.53125 C 43.941406 -1.6875 43.492188 -1.109375 42.859375 -0.796875 C 41.847656 -0.265625 40.472656 0 38.734375 0 L 10.15625 0 C 6.457031 0 4.289062 -1.003906 3.65625 -3.015625 C 3.332031 -3.859375 3.171875 -5.207031 3.171875 -7.0625 L 3.171875 -51.1875 C 3.171875 -52.40625 3.207031 -53.316406 3.28125 -53.921875 C 3.363281 -54.535156 3.617188 -55.238281 4.046875 -56.03125 C 4.785156 -57.457031 6.847656 -58.171875 10.234375 -58.171875 C 13.941406 -58.171875 16.140625 -57.191406 16.828125 -55.234375 C 17.085938 -54.335938 17.21875 -52.960938 17.21875 -51.109375 Z M 17.21875 -11.75 "/></g></g><g style="fill:#000000;fill-opacity:1;"><g transform="translate(214.412387, 205.112554)"><path style="stroke:none" d="M 17.21875 -11.75 L 38.8125 -11.75 C 40.550781 -11.75 41.816406 -11.550781 42.609375 -11.15625 C 43.410156 -10.757812 43.941406 -10.132812 44.203125 -9.28125 C 44.460938 -8.4375 44.59375 -7.3125 44.59375 -5.90625 C 44.59375 -4.507812 44.460938 -3.382812 44.203125 -2.53125 C 43.941406 -1.6875 43.492188 -1.109375 42.859375 -0.796875 C 41.847656 -0.265625 40.472656 0 38.734375 0 L 10.15625 0 C 6.457031 0 4.289062 -1.003906 3.65625 -3.015625 C 3.332031 -3.859375 3.171875 -5.207031 3.171875 -7.0625 L 3.171875 -51.1875 C 3.171875 -52.40625 3.207031 -53.316406 3.28125 -53.921875 C 3.363281 -54.535156 3.617188 -55.238281 4.046875 -56.03125 C 4.785156 -57.457031 6.847656 -58.171875 10.234375 -58.171875 C 13.941406 -58.171875 16.140625 -57.191406 16.828125 -55.234375 C 17.085938 -54.335938 17.21875 -52.960938 17.21875 -51.109375 Z M 17.21875 -11.75 "/></g></g><g style="fill:#000000;fill-opacity:1;"><g transform="translate(267.255173, 205.112554)"><path style="stroke:none" d="M 4.046875 -8.171875 C 2.671875 -9.867188 1.984375 -11.390625 1.984375 -12.734375 C 1.984375 -14.085938 3.117188 -15.875 5.390625 -18.09375 C 6.710938 -19.363281 8.113281 -20 9.59375 -20 C 11.082031 -20 13.148438 -18.675781 15.796875 -16.03125 C 16.535156 -15.132812 17.59375 -14.273438 18.96875 -13.453125 C 20.34375 -12.628906 21.613281 -12.21875 22.78125 -12.21875 C 27.695312 -12.21875 30.15625 -14.226562 30.15625 -18.25 C 30.15625 -19.46875 29.476562 -20.484375 28.125 -21.296875 C 26.78125 -22.117188 25.101562 -22.71875 23.09375 -23.09375 C 21.082031 -23.46875 18.910156 -24.0625 16.578125 -24.875 C 14.253906 -25.695312 12.085938 -26.660156 10.078125 -27.765625 C 8.066406 -28.878906 6.382812 -30.640625 5.03125 -33.046875 C 3.6875 -35.453125 3.015625 -38.351562 3.015625 -41.75 C 3.015625 -46.40625 4.742188 -50.460938 8.203125 -53.921875 C 11.671875 -57.390625 16.394531 -59.125 22.375 -59.125 C 25.550781 -59.125 28.445312 -58.710938 31.0625 -57.890625 C 33.6875 -57.066406 35.5 -56.234375 36.5 -55.390625 L 38.484375 -53.890625 C 40.128906 -52.347656 40.953125 -51.046875 40.953125 -49.984375 C 40.953125 -48.929688 40.316406 -47.476562 39.046875 -45.625 C 37.242188 -42.976562 35.390625 -41.65625 33.484375 -41.65625 C 32.378906 -41.65625 31.003906 -42.1875 29.359375 -43.25 C 29.203125 -43.351562 28.898438 -43.613281 28.453125 -44.03125 C 28.003906 -44.457031 27.59375 -44.804688 27.21875 -45.078125 C 26.101562 -45.765625 24.6875 -46.109375 22.96875 -46.109375 C 21.25 -46.109375 19.820312 -45.695312 18.6875 -44.875 C 17.550781 -44.050781 16.984375 -42.910156 16.984375 -41.453125 C 16.984375 -40.003906 17.65625 -38.828125 19 -37.921875 C 20.351562 -37.023438 22.035156 -36.414062 24.046875 -36.09375 C 26.054688 -35.78125 28.25 -35.289062 30.625 -34.625 C 33.007812 -33.96875 35.207031 -33.164062 37.21875 -32.21875 C 39.226562 -31.269531 40.90625 -29.617188 42.25 -27.265625 C 43.601562 -24.910156 44.28125 -22.007812 44.28125 -18.5625 C 44.28125 -15.125 43.59375 -12.097656 42.21875 -9.484375 C 40.84375 -6.867188 39.046875 -4.84375 36.828125 -3.40625 C 32.535156 -0.601562 27.957031 0.796875 23.09375 0.796875 C 20.601562 0.796875 18.25 0.492188 16.03125 -0.109375 C 13.8125 -0.722656 12.015625 -1.476562 10.640625 -2.375 C 7.828125 -4.070312 5.867188 -5.710938 4.765625 -7.296875 Z M 4.046875 -8.171875 "/></g></g><g style="fill:#000000;fill-opacity:1;"><g transform="translate(317.399972, 205.112554)"><path style="stroke:none" d="M 49.359375 -57.0625 C 51.953125 -55.257812 53.25 -53.515625 53.25 -51.828125 C 53.25 -50.816406 52.640625 -49.410156 51.421875 -47.609375 L 34.28125 -21.984375 L 34.28125 -6.828125 C 34.28125 -5.609375 34.238281 -4.691406 34.15625 -4.078125 C 34.082031 -3.472656 33.832031 -2.773438 33.40625 -1.984375 C 32.988281 -1.191406 32.273438 -0.632812 31.265625 -0.3125 C 30.265625 0 28.914062 0.15625 27.21875 0.15625 C 25.53125 0.15625 24.179688 0 23.171875 -0.3125 C 22.171875 -0.632812 21.457031 -1.203125 21.03125 -2.015625 C 20.601562 -2.835938 20.347656 -3.550781 20.265625 -4.15625 C 20.191406 -4.769531 20.15625 -5.710938 20.15625 -6.984375 L 20.15625 -21.984375 L 3.015625 -47.609375 C 1.796875 -49.410156 1.1875 -50.816406 1.1875 -51.828125 C 1.1875 -53.515625 2.347656 -55.140625 4.671875 -56.703125 C 7.003906 -58.265625 8.671875 -59.046875 9.671875 -59.046875 C 10.679688 -59.046875 11.476562 -58.832031 12.0625 -58.40625 C 12.957031 -57.820312 13.910156 -56.738281 14.921875 -55.15625 L 27.21875 -35.46875 L 39.515625 -55.15625 C 40.523438 -56.738281 41.398438 -57.78125 42.140625 -58.28125 C 42.878906 -58.789062 43.738281 -59.046875 44.71875 -59.046875 C 45.695312 -59.046875 47.242188 -58.382812 49.359375 -57.0625 Z M 49.359375 -57.0625 "/></g></g><g clip-rule="nonzero" clip-path="url(#e8e2fe82d6)"><g clip-rule="nonzero" clip-path="url(#3d868d1f30)"><g clip-rule="nonzero" clip-path="url(#301e3238a9)"><g clip-rule="nonzero" clip-path="url(#2f2d2a4359)"><path style=" stroke:none;fill-rule:nonzero;fill:#000000;fill-opacity:1;" d="M 149.746094 206.785156 C 151.269531 206.785156 152.503906 205.550781 152.503906 204.027344 L 152.503906 155.4375 L 145.414062 141.476562 C 145.0625 140.792969 144.078125 140.792969 143.730469 141.476562 L 136.640625 155.4375 L 136.640625 204.027344 C 136.640625 205.550781 137.875 206.785156 139.398438 206.785156 Z M 146.941406 156.347656 C 146.933594 156.347656 146.929688 156.34375 146.929688 156.34375 C 146.921875 156.34375 146.917969 156.347656 146.917969 156.347656 C 146.921875 156.34375 146.925781 156.332031 146.929688 156.328125 C 146.933594 156.332031 146.933594 156.339844 146.941406 156.347656 Z M 138.367188 155.851562 L 142.769531 147.195312 L 146.375 147.195312 L 150.777344 155.851562 L 150.777344 156.054688 C 150.421875 156.492188 149.886719 156.78125 149.28125 156.777344 C 148.222656 156.777344 147.359375 155.914062 147.359375 154.855469 C 147.355469 154.613281 147.164062 154.421875 146.929688 154.421875 C 146.6875 154.417969 146.492188 154.613281 146.496094 154.855469 C 146.496094 155.914062 145.632812 156.777344 144.570312 156.78125 C 143.507812 156.777344 142.644531 155.914062 142.644531 154.855469 C 142.648438 154.613281 142.453125 154.417969 142.214844 154.421875 C 141.976562 154.421875 141.785156 154.613281 141.78125 154.855469 C 141.78125 155.914062 140.917969 156.777344 139.859375 156.777344 C 139.253906 156.78125 138.722656 156.492188 138.367188 156.054688 Z M 142.214844 156.328125 C 142.21875 156.332031 142.222656 156.34375 142.226562 156.347656 C 142.222656 156.34375 142.21875 156.347656 142.214844 156.34375 C 142.214844 156.34375 142.210938 156.347656 142.203125 156.347656 C 142.210938 156.339844 142.210938 156.332031 142.214844 156.328125 Z M 148.960938 195.394531 L 148.960938 161.746094 C 148.960938 161.507812 149.058594 161.289062 149.214844 161.132812 C 149.371094 160.976562 149.585938 160.882812 149.824219 160.882812 C 150.304688 160.882812 150.691406 161.269531 150.691406 161.746094 L 150.691406 195.394531 C 150.691406 195.875 150.304688 196.257812 149.824219 196.257812 C 149.347656 196.257812 148.960938 195.871094 148.960938 195.394531 Z M 138.367188 201.324219 C 138.367188 200.835938 138.761719 200.441406 139.246094 200.445312 L 149.898438 200.445312 C 150.382812 200.441406 150.777344 200.835938 150.777344 201.324219 L 150.777344 201.835938 L 138.367188 201.835938 Z M 138.367188 203.574219 L 138.367188 202.988281 L 150.777344 202.988281 L 150.777344 203.574219 C 150.777344 204.394531 150.113281 205.058594 149.289062 205.058594 L 139.851562 205.058594 C 139.03125 205.058594 138.367188 204.394531 138.367188 203.574219 Z M 138.367188 203.574219 "/></g></g></g></g></g></svg>