<svg xmlns="http://www.w3.org/2000/svg" xmlns:xlink="http://www.w3.org/1999/xlink" width="500" zoomAndPan="magnify" viewBox="0 0 375 374.999991" height="500" preserveAspectRatio="xMidYMid meet" version="1.2"><defs><clipPath id="6c7a413ae8"><path d="M 125 141 L 142 141 L 142 207 L 125 207 Z M 125 141 "/></clipPath><clipPath id="cefde65a62"><path d="M 169.871094 176.894531 L 133.28125 213.488281 L 96.6875 176.894531 L 133.28125 140.304688 Z M 169.871094 176.894531 "/></clipPath><clipPath id="a231c7c858"><path d="M 169.871094 176.894531 L 133.28125 213.488281 L 96.6875 176.894531 L 133.28125 140.304688 Z M 169.871094 176.894531 "/></clipPath></defs><g id="b5fdfcb743"><g style="fill:#ffffff;fill-opacity:1;"><g transform="translate(14.440757, 205.112554)"><path style="stroke:none" d="M 4.046875 -8.171875 C 2.671875 -9.867188 1.984375 -11.390625 1.984375 -12.734375 C 1.984375 -14.085938 3.117188 -15.875 5.390625 -18.09375 C 6.710938 -19.363281 8.113281 -20 9.59375 -20 C 11.082031 -20 13.148438 -18.675781 15.796875 -16.03125 C 16.535156 -15.132812 17.59375 -14.273438 18.96875 -13.453125 C 20.34375 -12.628906 21.613281 -12.21875 22.78125 -12.21875 C 27.695312 -12.21875 30.15625 -14.226562 30.15625 -18.25 C 30.15625 -19.46875 29.476562 -20.484375 28.125 -21.296875 C 26.78125 -22.117188 25.101562 -22.71875 23.09375 -23.09375 C 21.082031 -23.46875 18.910156 -24.0625 16.578125 -24.875 C 14.253906 -25.695312 12.085938 -26.660156 10.078125 -27.765625 C 8.066406 -28.878906 6.382812 -30.640625 5.03125 -33.046875 C 3.6875 -35.453125 3.015625 -38.351562 3.015625 -41.75 C 3.015625 -46.40625 4.742188 -50.460938 8.203125 -53.921875 C 11.671875 -57.390625 16.394531 -59.125 22.375 -59.125 C 25.550781 -59.125 28.445312 -58.710938 31.0625 -57.890625 C 33.6875 -57.066406 35.5 -56.234375 36.5 -55.390625 L 38.484375 -53.890625 C 40.128906 -52.347656 40.953125 -51.046875 40.953125 -49.984375 C 40.953125 -48.929688 40.316406 -47.476562 39.046875 -45.625 C 37.242188 -42.976562 35.390625 -41.65625 33.484375 -41.65625 C 32.378906 -41.65625 31.003906 -42.1875 29.359375 -43.25 C 29.203125 -43.351562 28.898438 -43.613281 28.453125 -44.03125 C 28.003906 -44.457031 27.59375 -44.804688 27.21875 -45.078125 C 26.101562 -45.765625 24.6875 -46.109375 22.96875 -46.109375 C 21.25 -46.109375 19.820312 -45.695312 18.6875 -44.875 C 17.550781 -44.050781 16.984375 -42.910156 16.984375 -41.453125 C 16.984375 -40.003906 17.65625 -38.828125 19 -37.921875 C 20.351562 -37.023438 22.035156 -36.414062 24.046875 -36.09375 C 26.054688 -35.78125 28.25 -35.289062 30.625 -34.625 C 33.007812 -33.96875 35.207031 -33.164062 37.21875 -32.21875 C 39.226562 -31.269531 40.90625 -29.617188 42.25 -27.265625 C 43.601562 -24.910156 44.28125 -22.007812 44.28125 -18.5625 C 44.28125 -15.125 43.59375 -12.097656 42.21875 -9.484375 C 40.84375 -6.867188 39.046875 -4.84375 36.828125 -3.40625 C 32.535156 -0.601562 27.957031 0.796875 23.09375 0.796875 C 20.601562 0.796875 18.25 0.492188 16.03125 -0.109375 C 13.8125 -0.722656 12.015625 -1.476562 10.640625 -2.375 C 7.828125 -4.070312 5.867188 -5.710938 4.765625 -7.296875 Z M 4.046875 -8.171875 "/></g></g><g style="fill:#ffffff;fill-opacity:1;"><g transform="translate(66.966201, 205.112554)"><path style="stroke:none" d="M 28.09375 -29.203125 C 36.1875 -21.421875 41.925781 -15.578125 45.3125 -11.671875 C 47.0625 -9.710938 47.9375 -8.054688 47.9375 -6.703125 C 47.9375 -5.359375 46.875 -3.769531 44.75 -1.9375 C 42.632812 -0.113281 40.898438 0.796875 39.546875 0.796875 C 38.203125 0.796875 36.582031 -0.316406 34.6875 -2.546875 L 17.21875 -22.453125 L 17.21875 -6.984375 C 17.21875 -5.710938 17.175781 -4.785156 17.09375 -4.203125 C 17.019531 -3.617188 16.769531 -2.929688 16.34375 -2.140625 C 15.601562 -0.710938 13.539062 0 10.15625 0 C 6.457031 0 4.289062 -1.003906 3.65625 -3.015625 C 3.332031 -3.859375 3.171875 -5.207031 3.171875 -7.0625 L 3.171875 -51.1875 C 3.171875 -52.40625 3.207031 -53.316406 3.28125 -53.921875 C 3.363281 -54.535156 3.617188 -55.238281 4.046875 -56.03125 C 4.785156 -57.457031 6.847656 -58.171875 10.234375 -58.171875 C 13.941406 -58.171875 16.140625 -57.191406 16.828125 -55.234375 C 17.085938 -54.335938 17.21875 -52.960938 17.21875 -51.109375 L 17.21875 -35.953125 C 24.414062 -44.046875 30.238281 -50.6875 34.6875 -55.875 C 36.53125 -58.039062 38.140625 -59.125 39.515625 -59.125 C 40.890625 -59.125 42.632812 -58.207031 44.75 -56.375 C 46.875 -54.550781 47.9375 -52.960938 47.9375 -51.609375 C 47.9375 -50.265625 47.140625 -48.671875 45.546875 -46.828125 C 42.484375 -43.273438 37.722656 -38.40625 31.265625 -32.21875 Z M 28.09375 -29.203125 "/></g></g><g style="fill:#ffffff;fill-opacity:1;"><g transform="translate(123.934785, 205.112554)"><path style="stroke:none" d=""/></g></g><g style="fill:#ffffff;fill-opacity:1;"><g transform="translate(150.277403, 205.112554)"><path style="stroke:none" d="M 17.21875 -11.75 L 38.8125 -11.75 C 40.550781 -11.75 41.816406 -11.550781 42.609375 -11.15625 C 43.410156 -10.757812 43.941406 -10.132812 44.203125 -9.28125 C 44.460938 -8.4375 44.59375 -7.3125 44.59375 -5.90625 C 44.59375 -4.507812 44.460938 -3.382812 44.203125 -2.53125 C 43.941406 -1.6875 43.492188 -1.109375 42.859375 -0.796875 C 41.847656 -0.265625 40.472656 0 38.734375 0 L 10.15625 0 C 6.457031 0 4.289062 -1.003906 3.65625 -3.015625 C 3.332031 -3.859375 3.171875 -5.207031 3.171875 -7.0625 L 3.171875 -51.1875 C 3.171875 -52.40625 3.207031 -53.316406 3.28125 -53.921875 C 3.363281 -54.535156 3.617188 -55.238281 4.046875 -56.03125 C 4.785156 -57.457031 6.847656 -58.171875 10.234375 -58.171875 C 13.941406 -58.171875 16.140625 -57.191406 16.828125 -55.234375 C 17.085938 -54.335938 17.21875 -52.960938 17.21875 -51.109375 Z M 17.21875 -11.75 "/></g></g><g style="fill:#ffffff;fill-opacity:1;"><g transform="translate(203.120204, 205.112554)"><path style="stroke:none" d="M 17.21875 -11.75 L 38.8125 -11.75 C 40.550781 -11.75 41.816406 -11.550781 42.609375 -11.15625 C 43.410156 -10.757812 43.941406 -10.132812 44.203125 -9.28125 C 44.460938 -8.4375 44.59375 -7.3125 44.59375 -5.90625 C 44.59375 -4.507812 44.460938 -3.382812 44.203125 -2.53125 C 43.941406 -1.6875 43.492188 -1.109375 42.859375 -0.796875 C 41.847656 -0.265625 40.472656 0 38.734375 0 L 10.15625 0 C 6.457031 0 4.289062 -1.003906 3.65625 -3.015625 C 3.332031 -3.859375 3.171875 -5.207031 3.171875 -7.0625 L 3.171875 -51.1875 C 3.171875 -52.40625 3.207031 -53.316406 3.28125 -53.921875 C 3.363281 -54.535156 3.617188 -55.238281 4.046875 -56.03125 C 4.785156 -57.457031 6.847656 -58.171875 10.234375 -58.171875 C 13.941406 -58.171875 16.140625 -57.191406 16.828125 -55.234375 C 17.085938 -54.335938 17.21875 -52.960938 17.21875 -51.109375 Z M 17.21875 -11.75 "/></g></g><g style="fill:#ffffff;fill-opacity:1;"><g transform="translate(255.96299, 205.112554)"><path style="stroke:none" d="M 4.046875 -8.171875 C 2.671875 -9.867188 1.984375 -11.390625 1.984375 -12.734375 C 1.984375 -14.085938 3.117188 -15.875 5.390625 -18.09375 C 6.710938 -19.363281 8.113281 -20 9.59375 -20 C 11.082031 -20 13.148438 -18.675781 15.796875 -16.03125 C 16.535156 -15.132812 17.59375 -14.273438 18.96875 -13.453125 C 20.34375 -12.628906 21.613281 -12.21875 22.78125 -12.21875 C 27.695312 -12.21875 30.15625 -14.226562 30.15625 -18.25 C 30.15625 -19.46875 29.476562 -20.484375 28.125 -21.296875 C 26.78125 -22.117188 25.101562 -22.71875 23.09375 -23.09375 C 21.082031 -23.46875 18.910156 -24.0625 16.578125 -24.875 C 14.253906 -25.695312 12.085938 -26.660156 10.078125 -27.765625 C 8.066406 -28.878906 6.382812 -30.640625 5.03125 -33.046875 C 3.6875 -35.453125 3.015625 -38.351562 3.015625 -41.75 C 3.015625 -46.40625 4.742188 -50.460938 8.203125 -53.921875 C 11.671875 -57.390625 16.394531 -59.125 22.375 -59.125 C 25.550781 -59.125 28.445312 -58.710938 31.0625 -57.890625 C 33.6875 -57.066406 35.5 -56.234375 36.5 -55.390625 L 38.484375 -53.890625 C 40.128906 -52.347656 40.953125 -51.046875 40.953125 -49.984375 C 40.953125 -48.929688 40.316406 -47.476562 39.046875 -45.625 C 37.242188 -42.976562 35.390625 -41.65625 33.484375 -41.65625 C 32.378906 -41.65625 31.003906 -42.1875 29.359375 -43.25 C 29.203125 -43.351562 28.898438 -43.613281 28.453125 -44.03125 C 28.003906 -44.457031 27.59375 -44.804688 27.21875 -45.078125 C 26.101562 -45.765625 24.6875 -46.109375 22.96875 -46.109375 C 21.25 -46.109375 19.820312 -45.695312 18.6875 -44.875 C 17.550781 -44.050781 16.984375 -42.910156 16.984375 -41.453125 C 16.984375 -40.003906 17.65625 -38.828125 19 -37.921875 C 20.351562 -37.023438 22.035156 -36.414062 24.046875 -36.09375 C 26.054688 -35.78125 28.25 -35.289062 30.625 -34.625 C 33.007812 -33.96875 35.207031 -33.164062 37.21875 -32.21875 C 39.226562 -31.269531 40.90625 -29.617188 42.25 -27.265625 C 43.601562 -24.910156 44.28125 -22.007812 44.28125 -18.5625 C 44.28125 -15.125 43.59375 -12.097656 42.21875 -9.484375 C 40.84375 -6.867188 39.046875 -4.84375 36.828125 -3.40625 C 32.535156 -0.601562 27.957031 0.796875 23.09375 0.796875 C 20.601562 0.796875 18.25 0.492188 16.03125 -0.109375 C 13.8125 -0.722656 12.015625 -1.476562 10.640625 -2.375 C 7.828125 -4.070312 5.867188 -5.710938 4.765625 -7.296875 Z M 4.046875 -8.171875 "/></g></g><g style="fill:#ffffff;fill-opacity:1;"><g transform="translate(306.107789, 205.112554)"><path style="stroke:none" d="M 49.359375 -57.0625 C 51.953125 -55.257812 53.25 -53.515625 53.25 -51.828125 C 53.25 -50.816406 52.640625 -49.410156 51.421875 -47.609375 L 34.28125 -21.984375 L 34.28125 -6.828125 C 34.28125 -5.609375 34.238281 -4.691406 34.15625 -4.078125 C 34.082031 -3.472656 33.832031 -2.773438 33.40625 -1.984375 C 32.988281 -1.191406 32.273438 -0.632812 31.265625 -0.3125 C 30.265625 0 28.914062 0.15625 27.21875 0.15625 C 25.53125 0.15625 24.179688 0 23.171875 -0.3125 C 22.171875 -0.632812 21.457031 -1.203125 21.03125 -2.015625 C 20.601562 -2.835938 20.347656 -3.550781 20.265625 -4.15625 C 20.191406 -4.769531 20.15625 -5.710938 20.15625 -6.984375 L 20.15625 -21.984375 L 3.015625 -47.609375 C 1.796875 -49.410156 1.1875 -50.816406 1.1875 -51.828125 C 1.1875 -53.515625 2.347656 -55.140625 4.671875 -56.703125 C 7.003906 -58.265625 8.671875 -59.046875 9.671875 -59.046875 C 10.679688 -59.046875 11.476562 -58.832031 12.0625 -58.40625 C 12.957031 -57.820312 13.910156 -56.738281 14.921875 -55.15625 L 27.21875 -35.46875 L 39.515625 -55.15625 C 40.523438 -56.738281 41.398438 -57.78125 42.140625 -58.28125 C 42.878906 -58.789062 43.738281 -59.046875 44.71875 -59.046875 C 45.695312 -59.046875 47.242188 -58.382812 49.359375 -57.0625 Z M 49.359375 -57.0625 "/></g></g><g clip-rule="nonzero" clip-path="url(#6c7a413ae8)"><g clip-rule="nonzero" clip-path="url(#cefde65a62)"><g clip-rule="nonzero" clip-path="url(#a231c7c858)"><path style=" stroke:none;fill-rule:nonzero;fill:#ffffff;fill-opacity:1;" d="M 138.632812 206.617188 C 140.144531 206.617188 141.371094 205.390625 141.371094 203.875 L 141.371094 155.558594 L 134.324219 141.679688 C 133.976562 141 132.996094 141 132.648438 141.679688 L 125.601562 155.558594 L 125.601562 203.875 C 125.601562 205.390625 126.828125 206.617188 128.34375 206.617188 Z M 135.84375 156.464844 C 135.835938 156.464844 135.832031 156.460938 135.832031 156.460938 C 135.824219 156.460938 135.820312 156.464844 135.820312 156.464844 C 135.824219 156.460938 135.828125 156.449219 135.832031 156.445312 C 135.835938 156.449219 135.835938 156.457031 135.84375 156.464844 Z M 127.316406 155.972656 L 131.695312 147.363281 L 135.28125 147.363281 L 139.65625 155.972656 L 139.65625 156.175781 C 139.304688 156.605469 138.773438 156.894531 138.171875 156.890625 C 137.117188 156.890625 136.257812 156.03125 136.257812 154.980469 C 136.253906 154.742188 136.066406 154.550781 135.832031 154.550781 C 135.589844 154.546875 135.398438 154.742188 135.402344 154.980469 C 135.402344 156.03125 134.542969 156.890625 133.488281 156.894531 C 132.429688 156.890625 131.570312 156.03125 131.570312 154.980469 C 131.574219 154.742188 131.382812 154.546875 131.144531 154.550781 C 130.90625 154.550781 130.71875 154.742188 130.714844 154.980469 C 130.714844 156.03125 129.855469 156.890625 128.804688 156.890625 C 128.199219 156.894531 127.667969 156.605469 127.316406 156.175781 Z M 131.144531 156.445312 C 131.148438 156.449219 131.152344 156.460938 131.15625 156.464844 C 131.152344 156.460938 131.148438 156.464844 131.144531 156.460938 C 131.144531 156.460938 131.140625 156.464844 131.128906 156.464844 C 131.140625 156.457031 131.140625 156.449219 131.144531 156.445312 Z M 137.851562 195.292969 L 137.851562 161.832031 C 137.851562 161.59375 137.949219 161.378906 138.105469 161.222656 C 138.257812 161.066406 138.472656 160.972656 138.710938 160.972656 C 139.183594 160.972656 139.570312 161.355469 139.570312 161.832031 L 139.570312 195.292969 C 139.570312 195.765625 139.183594 196.148438 138.710938 196.148438 C 138.238281 196.148438 137.851562 195.765625 137.851562 195.292969 Z M 127.316406 201.1875 C 127.316406 200.703125 127.710938 200.308594 128.191406 200.3125 L 138.78125 200.3125 C 139.261719 200.308594 139.65625 200.703125 139.65625 201.1875 L 139.65625 201.695312 L 127.316406 201.695312 Z M 127.316406 203.421875 L 127.316406 202.839844 L 139.65625 202.839844 L 139.65625 203.421875 C 139.65625 204.238281 138.996094 204.898438 138.179688 204.898438 L 128.796875 204.898438 C 127.976562 204.898438 127.316406 204.238281 127.316406 203.421875 Z M 127.316406 203.421875 "/></g></g></g></g></svg>